G04 EAGLE Gerber RS-274X export*
G75*
%MOMM*%
%FSLAX34Y34*%
%LPD*%
%IN*%
%IPPOS*%
%AMOC8*
5,1,8,0,0,1.08239X$1,22.5*%
G01*
%ADD10C,0.000000*%


D10*
X0Y0D02*
X263200Y0D01*
X263200Y300000D01*
X0Y300000D01*
X0Y0D01*
X15000Y150000D02*
X15005Y150368D01*
X15018Y150736D01*
X15041Y151103D01*
X15072Y151470D01*
X15113Y151836D01*
X15162Y152201D01*
X15221Y152564D01*
X15288Y152926D01*
X15364Y153287D01*
X15450Y153645D01*
X15543Y154001D01*
X15646Y154354D01*
X15757Y154705D01*
X15877Y155053D01*
X16005Y155398D01*
X16142Y155740D01*
X16287Y156079D01*
X16440Y156413D01*
X16602Y156744D01*
X16771Y157071D01*
X16949Y157393D01*
X17134Y157712D01*
X17327Y158025D01*
X17528Y158334D01*
X17736Y158637D01*
X17952Y158935D01*
X18175Y159228D01*
X18405Y159516D01*
X18642Y159798D01*
X18886Y160073D01*
X19136Y160343D01*
X19393Y160607D01*
X19657Y160864D01*
X19927Y161114D01*
X20202Y161358D01*
X20484Y161595D01*
X20772Y161825D01*
X21065Y162048D01*
X21363Y162264D01*
X21666Y162472D01*
X21975Y162673D01*
X22288Y162866D01*
X22607Y163051D01*
X22929Y163229D01*
X23256Y163398D01*
X23587Y163560D01*
X23921Y163713D01*
X24260Y163858D01*
X24602Y163995D01*
X24947Y164123D01*
X25295Y164243D01*
X25646Y164354D01*
X25999Y164457D01*
X26355Y164550D01*
X26713Y164636D01*
X27074Y164712D01*
X27436Y164779D01*
X27799Y164838D01*
X28164Y164887D01*
X28530Y164928D01*
X28897Y164959D01*
X29264Y164982D01*
X29632Y164995D01*
X30000Y165000D01*
X30368Y164995D01*
X30736Y164982D01*
X31103Y164959D01*
X31470Y164928D01*
X31836Y164887D01*
X32201Y164838D01*
X32564Y164779D01*
X32926Y164712D01*
X33287Y164636D01*
X33645Y164550D01*
X34001Y164457D01*
X34354Y164354D01*
X34705Y164243D01*
X35053Y164123D01*
X35398Y163995D01*
X35740Y163858D01*
X36079Y163713D01*
X36413Y163560D01*
X36744Y163398D01*
X37071Y163229D01*
X37393Y163051D01*
X37712Y162866D01*
X38025Y162673D01*
X38334Y162472D01*
X38637Y162264D01*
X38935Y162048D01*
X39228Y161825D01*
X39516Y161595D01*
X39798Y161358D01*
X40073Y161114D01*
X40343Y160864D01*
X40607Y160607D01*
X40864Y160343D01*
X41114Y160073D01*
X41358Y159798D01*
X41595Y159516D01*
X41825Y159228D01*
X42048Y158935D01*
X42264Y158637D01*
X42472Y158334D01*
X42673Y158025D01*
X42866Y157712D01*
X43051Y157393D01*
X43229Y157071D01*
X43398Y156744D01*
X43560Y156413D01*
X43713Y156079D01*
X43858Y155740D01*
X43995Y155398D01*
X44123Y155053D01*
X44243Y154705D01*
X44354Y154354D01*
X44457Y154001D01*
X44550Y153645D01*
X44636Y153287D01*
X44712Y152926D01*
X44779Y152564D01*
X44838Y152201D01*
X44887Y151836D01*
X44928Y151470D01*
X44959Y151103D01*
X44982Y150736D01*
X44995Y150368D01*
X45000Y150000D01*
X44995Y149632D01*
X44982Y149264D01*
X44959Y148897D01*
X44928Y148530D01*
X44887Y148164D01*
X44838Y147799D01*
X44779Y147436D01*
X44712Y147074D01*
X44636Y146713D01*
X44550Y146355D01*
X44457Y145999D01*
X44354Y145646D01*
X44243Y145295D01*
X44123Y144947D01*
X43995Y144602D01*
X43858Y144260D01*
X43713Y143921D01*
X43560Y143587D01*
X43398Y143256D01*
X43229Y142929D01*
X43051Y142607D01*
X42866Y142288D01*
X42673Y141975D01*
X42472Y141666D01*
X42264Y141363D01*
X42048Y141065D01*
X41825Y140772D01*
X41595Y140484D01*
X41358Y140202D01*
X41114Y139927D01*
X40864Y139657D01*
X40607Y139393D01*
X40343Y139136D01*
X40073Y138886D01*
X39798Y138642D01*
X39516Y138405D01*
X39228Y138175D01*
X38935Y137952D01*
X38637Y137736D01*
X38334Y137528D01*
X38025Y137327D01*
X37712Y137134D01*
X37393Y136949D01*
X37071Y136771D01*
X36744Y136602D01*
X36413Y136440D01*
X36079Y136287D01*
X35740Y136142D01*
X35398Y136005D01*
X35053Y135877D01*
X34705Y135757D01*
X34354Y135646D01*
X34001Y135543D01*
X33645Y135450D01*
X33287Y135364D01*
X32926Y135288D01*
X32564Y135221D01*
X32201Y135162D01*
X31836Y135113D01*
X31470Y135072D01*
X31103Y135041D01*
X30736Y135018D01*
X30368Y135005D01*
X30000Y135000D01*
X29632Y135005D01*
X29264Y135018D01*
X28897Y135041D01*
X28530Y135072D01*
X28164Y135113D01*
X27799Y135162D01*
X27436Y135221D01*
X27074Y135288D01*
X26713Y135364D01*
X26355Y135450D01*
X25999Y135543D01*
X25646Y135646D01*
X25295Y135757D01*
X24947Y135877D01*
X24602Y136005D01*
X24260Y136142D01*
X23921Y136287D01*
X23587Y136440D01*
X23256Y136602D01*
X22929Y136771D01*
X22607Y136949D01*
X22288Y137134D01*
X21975Y137327D01*
X21666Y137528D01*
X21363Y137736D01*
X21065Y137952D01*
X20772Y138175D01*
X20484Y138405D01*
X20202Y138642D01*
X19927Y138886D01*
X19657Y139136D01*
X19393Y139393D01*
X19136Y139657D01*
X18886Y139927D01*
X18642Y140202D01*
X18405Y140484D01*
X18175Y140772D01*
X17952Y141065D01*
X17736Y141363D01*
X17528Y141666D01*
X17327Y141975D01*
X17134Y142288D01*
X16949Y142607D01*
X16771Y142929D01*
X16602Y143256D01*
X16440Y143587D01*
X16287Y143921D01*
X16142Y144260D01*
X16005Y144602D01*
X15877Y144947D01*
X15757Y145295D01*
X15646Y145646D01*
X15543Y145999D01*
X15450Y146355D01*
X15364Y146713D01*
X15288Y147074D01*
X15221Y147436D01*
X15162Y147799D01*
X15113Y148164D01*
X15072Y148530D01*
X15041Y148897D01*
X15018Y149264D01*
X15005Y149632D01*
X15000Y150000D01*
X218200Y150000D02*
X218205Y150368D01*
X218218Y150736D01*
X218241Y151103D01*
X218272Y151470D01*
X218313Y151836D01*
X218362Y152201D01*
X218421Y152564D01*
X218488Y152926D01*
X218564Y153287D01*
X218650Y153645D01*
X218743Y154001D01*
X218846Y154354D01*
X218957Y154705D01*
X219077Y155053D01*
X219205Y155398D01*
X219342Y155740D01*
X219487Y156079D01*
X219640Y156413D01*
X219802Y156744D01*
X219971Y157071D01*
X220149Y157393D01*
X220334Y157712D01*
X220527Y158025D01*
X220728Y158334D01*
X220936Y158637D01*
X221152Y158935D01*
X221375Y159228D01*
X221605Y159516D01*
X221842Y159798D01*
X222086Y160073D01*
X222336Y160343D01*
X222593Y160607D01*
X222857Y160864D01*
X223127Y161114D01*
X223402Y161358D01*
X223684Y161595D01*
X223972Y161825D01*
X224265Y162048D01*
X224563Y162264D01*
X224866Y162472D01*
X225175Y162673D01*
X225488Y162866D01*
X225807Y163051D01*
X226129Y163229D01*
X226456Y163398D01*
X226787Y163560D01*
X227121Y163713D01*
X227460Y163858D01*
X227802Y163995D01*
X228147Y164123D01*
X228495Y164243D01*
X228846Y164354D01*
X229199Y164457D01*
X229555Y164550D01*
X229913Y164636D01*
X230274Y164712D01*
X230636Y164779D01*
X230999Y164838D01*
X231364Y164887D01*
X231730Y164928D01*
X232097Y164959D01*
X232464Y164982D01*
X232832Y164995D01*
X233200Y165000D01*
X233568Y164995D01*
X233936Y164982D01*
X234303Y164959D01*
X234670Y164928D01*
X235036Y164887D01*
X235401Y164838D01*
X235764Y164779D01*
X236126Y164712D01*
X236487Y164636D01*
X236845Y164550D01*
X237201Y164457D01*
X237554Y164354D01*
X237905Y164243D01*
X238253Y164123D01*
X238598Y163995D01*
X238940Y163858D01*
X239279Y163713D01*
X239613Y163560D01*
X239944Y163398D01*
X240271Y163229D01*
X240593Y163051D01*
X240912Y162866D01*
X241225Y162673D01*
X241534Y162472D01*
X241837Y162264D01*
X242135Y162048D01*
X242428Y161825D01*
X242716Y161595D01*
X242998Y161358D01*
X243273Y161114D01*
X243543Y160864D01*
X243807Y160607D01*
X244064Y160343D01*
X244314Y160073D01*
X244558Y159798D01*
X244795Y159516D01*
X245025Y159228D01*
X245248Y158935D01*
X245464Y158637D01*
X245672Y158334D01*
X245873Y158025D01*
X246066Y157712D01*
X246251Y157393D01*
X246429Y157071D01*
X246598Y156744D01*
X246760Y156413D01*
X246913Y156079D01*
X247058Y155740D01*
X247195Y155398D01*
X247323Y155053D01*
X247443Y154705D01*
X247554Y154354D01*
X247657Y154001D01*
X247750Y153645D01*
X247836Y153287D01*
X247912Y152926D01*
X247979Y152564D01*
X248038Y152201D01*
X248087Y151836D01*
X248128Y151470D01*
X248159Y151103D01*
X248182Y150736D01*
X248195Y150368D01*
X248200Y150000D01*
X248195Y149632D01*
X248182Y149264D01*
X248159Y148897D01*
X248128Y148530D01*
X248087Y148164D01*
X248038Y147799D01*
X247979Y147436D01*
X247912Y147074D01*
X247836Y146713D01*
X247750Y146355D01*
X247657Y145999D01*
X247554Y145646D01*
X247443Y145295D01*
X247323Y144947D01*
X247195Y144602D01*
X247058Y144260D01*
X246913Y143921D01*
X246760Y143587D01*
X246598Y143256D01*
X246429Y142929D01*
X246251Y142607D01*
X246066Y142288D01*
X245873Y141975D01*
X245672Y141666D01*
X245464Y141363D01*
X245248Y141065D01*
X245025Y140772D01*
X244795Y140484D01*
X244558Y140202D01*
X244314Y139927D01*
X244064Y139657D01*
X243807Y139393D01*
X243543Y139136D01*
X243273Y138886D01*
X242998Y138642D01*
X242716Y138405D01*
X242428Y138175D01*
X242135Y137952D01*
X241837Y137736D01*
X241534Y137528D01*
X241225Y137327D01*
X240912Y137134D01*
X240593Y136949D01*
X240271Y136771D01*
X239944Y136602D01*
X239613Y136440D01*
X239279Y136287D01*
X238940Y136142D01*
X238598Y136005D01*
X238253Y135877D01*
X237905Y135757D01*
X237554Y135646D01*
X237201Y135543D01*
X236845Y135450D01*
X236487Y135364D01*
X236126Y135288D01*
X235764Y135221D01*
X235401Y135162D01*
X235036Y135113D01*
X234670Y135072D01*
X234303Y135041D01*
X233936Y135018D01*
X233568Y135005D01*
X233200Y135000D01*
X232832Y135005D01*
X232464Y135018D01*
X232097Y135041D01*
X231730Y135072D01*
X231364Y135113D01*
X230999Y135162D01*
X230636Y135221D01*
X230274Y135288D01*
X229913Y135364D01*
X229555Y135450D01*
X229199Y135543D01*
X228846Y135646D01*
X228495Y135757D01*
X228147Y135877D01*
X227802Y136005D01*
X227460Y136142D01*
X227121Y136287D01*
X226787Y136440D01*
X226456Y136602D01*
X226129Y136771D01*
X225807Y136949D01*
X225488Y137134D01*
X225175Y137327D01*
X224866Y137528D01*
X224563Y137736D01*
X224265Y137952D01*
X223972Y138175D01*
X223684Y138405D01*
X223402Y138642D01*
X223127Y138886D01*
X222857Y139136D01*
X222593Y139393D01*
X222336Y139657D01*
X222086Y139927D01*
X221842Y140202D01*
X221605Y140484D01*
X221375Y140772D01*
X221152Y141065D01*
X220936Y141363D01*
X220728Y141666D01*
X220527Y141975D01*
X220334Y142288D01*
X220149Y142607D01*
X219971Y142929D01*
X219802Y143256D01*
X219640Y143587D01*
X219487Y143921D01*
X219342Y144260D01*
X219205Y144602D01*
X219077Y144947D01*
X218957Y145295D01*
X218846Y145646D01*
X218743Y145999D01*
X218650Y146355D01*
X218564Y146713D01*
X218488Y147074D01*
X218421Y147436D01*
X218362Y147799D01*
X218313Y148164D01*
X218272Y148530D01*
X218241Y148897D01*
X218218Y149264D01*
X218205Y149632D01*
X218200Y150000D01*
M02*
