M48
;GenerationSoftware,Autodesk,EAGLE,9.2.2*%
;CreationDate,2018-11-29T01:23:55Z*%
FMAT,2
ICI,OFF
METRIC,TZ,000.000
T3C0.305
T2C0.800
T1C3.000
%
G90
M71
T1
X3000Y15000
X23320Y15000
T2
X4370Y27720
X4370Y25720
X4370Y23720
X4370Y21720
X4370Y8280
X4370Y6280
X4370Y4280
X4370Y2280
X21950Y2280
X21950Y4280
X21950Y6280
X21950Y8280
X21950Y21720
X21950Y23720
X21950Y25720
X21950Y27720
T3
X13665Y3937
X12675Y25959
M30